<svg xmlns="http://www.w3.org/2000/svg" width="182" height="72" viewBox="0 0 182 72">
  <g id="Grupo_1" data-name="Grupo 1" transform="translate(-123 -395)">
    <path id="iconmonstr-police-2" d="M43.079,24.066c-.13,4.189-4.84,6.788-18.261,6.788-13.449,0-18.15-2.612-18.261-6.817,3.275,0,9.509-4.252,18.261-4.252C33.346,19.783,40.332,24.066,43.079,24.066ZM24.82,32.948a57.9,57.9,0,0,1-11.027-.862c.135,1.205,1.018,7.214,5.231,7.214,3.737,0,3.633-2.858,5.909-2.858S27.472,39.3,31.127,39.3c4.539,0,5.342-6.652,5.416-7.36A55.084,55.084,0,0,1,24.82,32.948Zm13.909-1.609c-.087,4.715-1.557,10.356-4.951,13.979A11.312,11.312,0,0,1,25.2,48.98a11.535,11.535,0,0,1-8.537-3.435c-3.574-3.633-5-9.436-5.2-14.031A14.254,14.254,0,0,1,8.24,30.15c-.035,5.368,1.529,12.9,6.126,17.577A14.65,14.65,0,0,0,25.2,52.118a14.62,14.62,0,0,0,10.93-4.675c4.628-4.936,5.994-12.333,5.779-17.614a12.951,12.951,0,0,1-3.181,1.509Zm2.115-24.3S35.335,5.548,24.888,0C14.438,5.548,8.931,7.038,8.931,7.038A62.758,62.758,0,0,1,1,17.931l5.127,4.311a12.746,12.746,0,0,0,3.635-1.116l-4.239-3.5A34.662,34.662,0,0,0,9.165,12.7a.632.632,0,0,1,.517-.3.618.618,0,0,1,.528.274l3.931,6.2-2.7-8.217a1,1,0,0,1,.456-1.19A127.418,127.418,0,0,0,24.888,3.735,127.417,127.417,0,0,0,37.882,9.473a.994.994,0,0,1,.456,1.19l-2.7,8.217,3.931-6.2a.613.613,0,0,1,.528-.274.628.628,0,0,1,.515.3,34.5,34.5,0,0,0,3.644,4.919l-4.241,3.5a12.746,12.746,0,0,0,3.635,1.116l5.127-4.311A62.758,62.758,0,0,1,40.845,7.038ZM28.79,11.688c-.439-1.173-.189-1.542.271-2.015l.4-.4c-2.2-1.828-1.752-1.451-2.248-1.881a1.541,1.541,0,0,1-1.121.643,1.8,1.8,0,0,1-1.2-.621,1.866,1.866,0,0,1-1.207.621A1.533,1.533,0,0,1,22.573,7.4L20.319,9.271l.4.4c.463.473.71.845.271,2.015a7.748,7.748,0,0,0-.727,2.619,3.052,3.052,0,0,0,2.63,2.971,3.858,3.858,0,0,1,2,.916,3.867,3.867,0,0,1,2-.916,3.049,3.049,0,0,0,2.63-2.971,7.628,7.628,0,0,0-.723-2.621Zm-2.725,1.477.274,1.566L24.9,13.992l-1.431.738.271-1.566-1.16-1.11,1.6-.228L24.9,10.4l.717,1.425,1.6.228Z" transform="translate(129 404)"/>
    <text id="SECURO" transform="translate(191 442)" font-size="28" font-family="SegoeUI, Segoe UI"><tspan x="0" y="0">SECURO</tspan></text>
    <g id="Rectángulo_1" data-name="Rectángulo 1" transform="translate(123 395)" fill="none" stroke="#000" stroke-width="3">
      <rect width="182" height="72" rx="8" stroke="none"/>
      <rect x="1.5" y="1.5" width="179" height="69" rx="6.5" fill="none"/>
    </g>
  </g>
</svg>
